<?xml version="1.0" encoding="iso-8859-1"?>
<!-- Generator: Adobe Illustrator 19.0.0, SVG Export Plug-In . SVG Version: 6.00 Build 0)  -->
<svg version="1.1" id="Capa_1" xmlns="http://www.w3.org/2000/svg" xmlns:xlink="http://www.w3.org/1999/xlink" x="0px" y="0px"
	 viewBox="0 0 512.001 512.001" style="enable-background:new 0 0 512.001 512.001;" xml:space="preserve">
<path style="fill:#17ACE8;" d="M450.996,0H61.005c-24.9,0-44.999,20.099-44.999,44.999v331.993c0,24.9,20.099,44.999,44.999,44.999
	h74.998v74.998c0,6,3.6,11.4,9.3,13.801c5.4,2.399,12.001,1.199,16.199-3.301l85.799-85.498h203.695
	c24.9,0,44.999-20.099,44.999-44.999V44.999C495.995,20.099,475.896,0,450.996,0z"/>
<path style="fill:#1689FC;" d="M495.995,44.999v331.993c0,24.9-20.099,44.999-44.999,44.999H330.999V0h119.997
	C475.896,0,495.995,20.099,495.995,44.999z"/>
<path style="fill:#CAE8F9;" d="M420.997,74.998v29.999c0,8.401-6.599,15-15,15h-44.999v59.999h35.699c11.1,0,18.3,11.7,13.5,21.599
	l-15,29.999c-2.701,5.101-7.8,8.401-13.5,8.401h-20.7v181.996h-59.999V239.995h-15c-8.401,0-15-6.599-15-15v-29.999
	c0-8.401,6.599-15,15-15h15v-59.999c0-22.2,12.001-41.399,29.999-51.898c8.699-5.101,19.2-8.101,29.999-8.101h44.999
	C414.397,59.999,420.997,66.598,420.997,74.998z"/>
<path style="fill:#B7E0F6;" d="M420.997,74.998v29.999c0,8.401-6.599,15-15,15h-44.999v59.999h35.699c11.1,0,18.3,11.7,13.5,21.599
	l-15,29.999c-2.701,5.101-7.8,8.401-13.5,8.401h-20.7v181.996h-29.999V68.1c8.699-5.101,19.2-8.101,29.999-8.101h44.999
	C414.397,59.999,420.997,66.598,420.997,74.998z"/>
<g>
</g>
<g>
</g>
<g>
</g>
<g>
</g>
<g>
</g>
<g>
</g>
<g>
</g>
<g>
</g>
<g>
</g>
<g>
</g>
<g>
</g>
<g>
</g>
<g>
</g>
<g>
</g>
<g>
</g>
</svg>
